Coordinates
version=1
nRows=10
nColumns=22
inDegrees=yes

Units are S.I. units (second, meters, Newtons, ...)
If the header above contains a line with 'inDegrees', this indicates whether rotational values are in degrees (yes) or radians (no).

endheader
time	pelvis_tilt	pelvis_list	pelvis_rotation	pelvis_tx	pelvis_ty	pelvis_tz	hip_flexion_r	hip_adduction_r	hip_rotation_r	knee_angle_r	ankle_angle_r	subtalar_angle_r	hip_flexion_l	hip_adduction_l	hip_rotation_l	knee_angle_l	ankle_angle_l	subtalar_angle_l	lumbar_extension	lumbar_bending	lumbar_rotation
      1.68000000	      3.32660585	      1.07626648	    132.03264019	     -0.49046788	      0.91743278	      0.79659141	     -6.34044670	     13.25597195	     13.84837598	    -12.35487146	     14.63483254	    -11.15368368	     30.45177521	     -4.99394252	     14.37650507	    -23.90583760	      6.33567627	      6.01693794	     -4.73556794	      2.42759607	      3.04987383
      1.69000000	      3.23249976	      1.12140419	    131.35738904	     -0.49655748	      0.91589289	      0.78996718	     -7.09697200	     13.08800852	     14.19539379	    -12.48798346	     15.09257855	    -11.21712673	     30.23119875	     -4.79258901	     15.06009885	    -21.38132057	      6.28168938	      6.59056970	     -4.88809618	      2.42239473	      3.26215234
      1.70000000	      3.14430486	      1.21256844	    130.70105105	     -0.50269523	      0.91427487	      0.78314075	     -7.92238386	     12.94995270	     14.56656634	    -12.58111373	     15.54354121	    -11.27039009	     30.01082463	     -4.68001447	     15.59002308	    -19.13855688	      6.24378349	      6.97740184	     -5.06688861	      2.44057103	      3.43058396
      1.71000000	      3.05579155	      1.37156660	    130.04430468	     -0.50886944	      0.91265542	      0.77608238	     -8.84144991	     12.84207553	     14.91340154	    -12.62959112	     15.90285570	    -11.33440586	     29.76775980	     -4.65552386	     15.97167811	    -17.23418407	      6.30547709	      7.25078554	     -5.29683677	      2.48451450	      3.64850027
      1.72000000	      2.98986583	      1.54359750	    129.38532736	     -0.51506235	      0.91096907	      0.76882494	     -9.77006242	     12.74784914	     15.28160999	    -12.67828712	     16.24988894	    -11.37793185	     29.57572477	     -4.67849091	     16.20141072	    -15.73478212	      6.40777038	      7.34431517	     -5.51217353	      2.53970368	      3.86356583
      1.73000000	      2.94033633	      1.72096225	    128.71426215	     -0.52126386	      0.90925814	      0.76135988	    -10.70196412	     12.65248184	     15.65822202	    -12.73034010	     16.53676695	    -11.41464817	     29.42561338	     -4.72642689	     16.32998867	    -14.66670599	      6.56606182	      7.33995129	     -5.71024122	      2.59272191	      4.09666856
      1.74000000	      2.92612316	      1.87124208	    128.02651821	     -0.52745447	      0.90750029	      0.75369845	    -11.57681808	     12.55291046	     16.05792852	    -12.82029375	     16.76574721	    -11.43862670	     29.35412164	     -4.78103684	     16.41392207	    -14.05224797	      6.73113556	      7.30381430	     -5.84605189	      2.63796379	      4.33204613
      1.75000000	      2.96211622	      1.97031489	    127.32316783	     -0.53362201	      0.90568084	      0.74587539	    -12.34790266	     12.45069082	     16.49741470	    -12.97286533	     16.94446573	    -11.44507744	     29.39563927	     -4.82598349	     16.52205844	    -13.90837839	      6.84492033	      7.30317445	     -5.88905924	      2.67835605	      4.56869814
      1.76000000	      3.01954699	      2.00932917	    126.61378531	     -0.53981751	      0.90387679	      0.73788128	    -13.01937162	     12.31827328	     16.93398189	    -13.19656595	     17.05689368	    -11.45882867	     29.49201873	     -4.82946962	     16.74225785	    -14.14981735	      6.86769830	      7.36290129	     -5.84250157	      2.68824262	      4.78557588
      1.77000000	      3.08433484	      1.97776486	    125.89829759	     -0.54601840	      0.90213026	      0.72971566	    -13.58512914	     12.14405947	     17.37875292	    -13.49733763	     17.07819046	    -11.49183061	     29.66327584	     -4.76891969	     17.05712396	    -14.79096579	      6.74313283	      7.51985577	     -5.70650395	      2.64176797	      4.99239788
